# Blender 5.1.1
# www.blender.org
mtllib portel.mtl
o Cylinder.001
v 0.010732 1.081992 -0.604603
v 0.010732 1.042907 -0.604218
v 0.010732 1.003871 -0.603063
v 0.010732 0.964935 -0.601139
v 0.010732 0.926148 -0.598449
v 0.010732 0.887560 -0.594997
v 0.010732 0.849219 -0.590786
v 0.010732 0.811175 -0.585823
v 0.010732 0.773476 -0.580113
v 0.010732 0.736170 -0.573663
v 0.010732 0.699305 -0.566483
v 0.010732 0.662928 -0.558581
v 0.010732 0.627085 -0.549967
v 0.010732 0.591821 -0.540652
v 0.010732 0.557182 -0.530648
v 0.010732 0.523212 -0.519967
v 0.010732 0.489954 -0.508625
v 0.010732 0.457450 -0.496634
v 0.010732 0.425743 -0.484010
v 0.010732 0.394871 -0.470769
v 0.010732 0.364875 -0.456929
v 0.010732 0.335793 -0.442506
v 0.010732 0.307662 -0.427519
v 0.010732 0.280518 -0.411988
v 0.010732 0.254395 -0.395931
v 0.010732 0.229327 -0.379370
v 0.010732 0.205345 -0.362325
v 0.010732 0.182481 -0.344819
v 0.010732 0.160763 -0.326873
v 0.010732 0.140218 -0.308511
v 0.010732 0.120874 -0.289756
v 0.010732 0.102755 -0.270631
v 0.010732 0.085884 -0.251161
v 0.010732 0.070282 -0.231372
v 0.010732 0.055969 -0.211287
v 0.010732 0.042964 -0.190933
v 0.010732 0.031282 -0.170336
v 0.010732 0.020940 -0.149522
v 0.010732 0.011950 -0.128518
v 0.010732 0.004324 -0.107349
v 0.010732 -0.001929 -0.086044
v 0.010732 -0.006801 -0.064629
v 0.010732 -0.010285 -0.043132
v 0.010732 -0.012378 -0.021580
v 0.010732 -0.013075 0.000000
v 0.010732 -0.012378 0.021580
v 0.010732 -0.010285 0.043132
v 0.010732 -0.006801 0.064629
v 0.010732 -0.001929 0.086044
v 0.010732 0.004324 0.107349
v 0.010732 0.011950 0.128518
v 0.010732 0.020940 0.149522
v 0.010732 0.031282 0.170336
v 0.010732 0.042964 0.190933
v 0.010732 0.055969 0.211287
v 0.010732 0.070282 0.231372
v 0.010732 0.085884 0.251161
v 0.010732 0.102755 0.270631
v 0.010732 0.120874 0.289756
v 0.010732 0.140218 0.308511
v 0.010732 0.160763 0.326873
v 0.010732 0.182481 0.344819
v 0.010732 0.205345 0.362325
v 0.010732 0.229327 0.379370
v 0.010732 0.254395 0.395931
v 0.010732 0.280518 0.411988
v 0.010732 0.307662 0.427519
v 0.010732 0.335793 0.442506
v 0.010732 0.364875 0.456929
v 0.010732 0.394871 0.470769
v 0.010732 0.425743 0.484010
v 0.010732 0.457450 0.496634
v 0.010732 0.489954 0.508625
v 0.010732 0.523212 0.519967
v 0.010732 0.557182 0.530648
v 0.010732 0.591821 0.540652
v 0.010732 0.627085 0.549967
v 0.010732 0.662928 0.558581
v 0.010732 0.699305 0.566483
v 0.010732 0.736170 0.573663
v 0.010732 0.773476 0.580113
v 0.010732 0.811175 0.585823
v 0.010732 0.849219 0.590786
v 0.010732 0.887560 0.594997
v 0.010732 0.926148 0.598449
v 0.010732 0.964935 0.601139
v 0.010732 1.003871 0.603063
v 0.010732 1.042907 0.604218
v 0.010732 1.081992 0.604603
v 0.010732 1.121078 0.604218
v 0.010732 1.160114 0.603063
v 0.010732 1.199050 0.601139
v 0.010732 1.237837 0.598449
v 0.010732 1.276425 0.594997
v 0.010732 1.314766 0.590786
v 0.010732 1.352810 0.585823
v 0.010732 1.390509 0.580113
v 0.010732 1.427814 0.573663
v 0.010732 1.464679 0.566483
v 0.010732 1.501057 0.558581
v 0.010732 1.536900 0.549967
v 0.010732 1.572164 0.540652
v 0.010732 1.606803 0.530648
v 0.010732 1.640773 0.519967
v 0.010732 1.674031 0.508625
v 0.010732 1.706534 0.496634
v 0.010732 1.738242 0.484010
v 0.010732 1.769114 0.470769
v 0.010732 1.799109 0.456929
v 0.010732 1.828191 0.442506
v 0.010732 1.856322 0.427519
v 0.010732 1.883466 0.411988
v 0.010732 1.909589 0.395931
v 0.010732 1.934658 0.379370
v 0.010732 1.958639 0.362325
v 0.010732 1.981504 0.344819
v 0.010732 2.003222 0.326873
v 0.010732 2.023766 0.308511
v 0.010732 2.043110 0.289756
v 0.010732 2.061230 0.270631
v 0.010732 2.078101 0.251161
v 0.010732 2.093703 0.231372
v 0.010732 2.108016 0.211287
v 0.010732 2.121021 0.190933
v 0.010732 2.132702 0.170336
v 0.010732 2.143044 0.149522
v 0.010732 2.152035 0.128518
v 0.010732 2.159661 0.107349
v 0.010732 2.165914 0.086044
v 0.010732 2.170786 0.064629
v 0.010732 2.174270 0.043132
v 0.010732 2.176363 0.021580
v 0.010732 2.177060 0.000000
v 0.010732 2.176363 -0.021580
v 0.010732 2.174270 -0.043132
v 0.010732 2.170786 -0.064629
v 0.010732 2.165914 -0.086044
v 0.010732 2.159661 -0.107349
v 0.010732 2.152035 -0.128518
v 0.010732 2.143044 -0.149522
v 0.010732 2.132702 -0.170336
v 0.010732 2.121021 -0.190933
v 0.010732 2.108016 -0.211287
v 0.010732 2.093703 -0.231372
v 0.010732 2.078101 -0.251161
v 0.010732 2.061230 -0.270631
v 0.010732 2.043110 -0.289756
v 0.010732 2.023766 -0.308511
v 0.010732 2.003222 -0.326873
v 0.010732 1.981504 -0.344819
v 0.010732 1.958639 -0.362325
v 0.010732 1.934658 -0.379370
v 0.010732 1.909589 -0.395931
v 0.010732 1.883466 -0.411988
v 0.010732 1.856322 -0.427519
v 0.010732 1.828191 -0.442506
v 0.010732 1.799109 -0.456929
v 0.010732 1.769114 -0.470769
v 0.010732 1.738242 -0.484010
v 0.010732 1.706534 -0.496634
v 0.010732 1.674031 -0.508625
v 0.010732 1.640773 -0.519967
v 0.010732 1.606803 -0.530648
v 0.010732 1.572164 -0.540652
v 0.010732 1.536900 -0.549967
v 0.010732 1.501057 -0.558581
v 0.010732 1.464679 -0.566483
v 0.010732 1.427814 -0.573663
v 0.010732 1.390509 -0.580113
v 0.010732 1.352810 -0.585823
v 0.010732 1.314766 -0.590786
v 0.010732 1.276425 -0.594997
v 0.010732 1.237837 -0.598449
v 0.010732 1.199050 -0.601139
v 0.010732 1.160114 -0.603063
v 0.010732 1.121078 -0.604218
vn 1.0000 -0.0000 -0.0000
vt 0.258566 0.489847
vt 0.250000 0.490000
vt 0.241434 0.489847
vt 0.232879 0.489389
vt 0.224345 0.488625
vt 0.215844 0.487557
vt 0.207387 0.486187
vt 0.198984 0.484515
vt 0.190646 0.482545
vt 0.182384 0.480278
vt 0.174208 0.477718
vt 0.166129 0.474868
vt 0.158156 0.471731
vt 0.150300 0.468312
vt 0.142572 0.464614
vt 0.134980 0.460643
vt 0.127535 0.456403
vt 0.120246 0.451901
vt 0.113123 0.447141
vt 0.106173 0.442130
vt 0.099407 0.436874
vt 0.092833 0.431380
vt 0.086460 0.425655
vt 0.080294 0.419706
vt 0.074345 0.413540
vt 0.068620 0.407167
vt 0.063126 0.400593
vt 0.057870 0.393827
vt 0.052859 0.386877
vt 0.048099 0.379754
vt 0.043597 0.372465
vt 0.039357 0.365020
vt 0.035386 0.357428
vt 0.031688 0.349700
vt 0.028269 0.341844
vt 0.025132 0.333871
vt 0.022282 0.325792
vt 0.019722 0.317616
vt 0.017455 0.309354
vt 0.015485 0.301016
vt 0.013813 0.292613
vt 0.012443 0.284156
vt 0.011375 0.275655
vt 0.010611 0.267121
vt 0.010153 0.258566
vt 0.010000 0.250000
vt 0.010153 0.241434
vt 0.010611 0.232879
vt 0.011375 0.224345
vt 0.012443 0.215844
vt 0.013813 0.207387
vt 0.015485 0.198984
vt 0.017455 0.190646
vt 0.019722 0.182384
vt 0.022282 0.174208
vt 0.025132 0.166129
vt 0.028269 0.158156
vt 0.031688 0.150300
vt 0.035386 0.142572
vt 0.039357 0.134980
vt 0.043597 0.127535
vt 0.048099 0.120246
vt 0.052859 0.113123
vt 0.057870 0.106173
vt 0.063126 0.099407
vt 0.068620 0.092833
vt 0.074345 0.086460
vt 0.080294 0.080294
vt 0.086460 0.074345
vt 0.092833 0.068620
vt 0.099407 0.063126
vt 0.106173 0.057870
vt 0.113123 0.052859
vt 0.120246 0.048099
vt 0.127535 0.043597
vt 0.134980 0.039357
vt 0.142572 0.035386
vt 0.150300 0.031688
vt 0.158156 0.028269
vt 0.166129 0.025132
vt 0.174208 0.022282
vt 0.182384 0.019722
vt 0.190646 0.017455
vt 0.198984 0.015485
vt 0.207387 0.013813
vt 0.215844 0.012443
vt 0.224345 0.011375
vt 0.232879 0.010611
vt 0.241434 0.010153
vt 0.250000 0.010000
vt 0.258566 0.010153
vt 0.267121 0.010611
vt 0.275655 0.011375
vt 0.284156 0.012443
vt 0.292613 0.013813
vt 0.301016 0.015485
vt 0.309354 0.017455
vt 0.317616 0.019722
vt 0.325792 0.022282
vt 0.333871 0.025132
vt 0.341844 0.028269
vt 0.349700 0.031688
vt 0.357428 0.035386
vt 0.365020 0.039357
vt 0.372465 0.043597
vt 0.379754 0.048099
vt 0.386877 0.052859
vt 0.393827 0.057870
vt 0.400593 0.063126
vt 0.407167 0.068620
vt 0.413540 0.074345
vt 0.419706 0.080294
vt 0.425655 0.086460
vt 0.431380 0.092833
vt 0.436874 0.099407
vt 0.442130 0.106173
vt 0.447141 0.113123
vt 0.451901 0.120246
vt 0.456403 0.127535
vt 0.460643 0.134980
vt 0.464614 0.142572
vt 0.468312 0.150300
vt 0.471731 0.158156
vt 0.474868 0.166129
vt 0.477718 0.174208
vt 0.480278 0.182384
vt 0.482545 0.190646
vt 0.484515 0.198984
vt 0.486187 0.207387
vt 0.487557 0.215844
vt 0.488625 0.224345
vt 0.489389 0.232879
vt 0.489847 0.241434
vt 0.490000 0.250000
vt 0.489847 0.258566
vt 0.489389 0.267121
vt 0.488625 0.275655
vt 0.487557 0.284156
vt 0.486187 0.292613
vt 0.484515 0.301016
vt 0.482545 0.309354
vt 0.480278 0.317616
vt 0.477718 0.325792
vt 0.474868 0.333871
vt 0.471731 0.341844
vt 0.468312 0.349700
vt 0.464614 0.357428
vt 0.460643 0.365020
vt 0.456403 0.372465
vt 0.451901 0.379754
vt 0.447141 0.386877
vt 0.442130 0.393827
vt 0.436874 0.400593
vt 0.431380 0.407167
vt 0.425655 0.413540
vt 0.419706 0.419706
vt 0.413540 0.425655
vt 0.407167 0.431380
vt 0.400593 0.436874
vt 0.393827 0.442130
vt 0.386877 0.447141
vt 0.379754 0.451901
vt 0.372465 0.456403
vt 0.365020 0.460643
vt 0.357428 0.464614
vt 0.349700 0.468312
vt 0.341844 0.471731
vt 0.333871 0.474868
vt 0.325792 0.477718
vt 0.317616 0.480278
vt 0.309354 0.482545
vt 0.301016 0.484515
vt 0.292613 0.486187
vt 0.284156 0.487557
vt 0.275655 0.488625
vt 0.267121 0.489389
s 0
f 2/1/1 1/2/1 176/3/1 175/4/1 174/5/1 173/6/1 172/7/1 171/8/1 170/9/1 169/10/1 168/11/1 167/12/1 166/13/1 165/14/1 164/15/1 163/16/1 162/17/1 161/18/1 160/19/1 159/20/1 158/21/1 157/22/1 156/23/1 155/24/1 154/25/1 153/26/1 152/27/1 151/28/1 150/29/1 149/30/1 148/31/1 147/32/1 146/33/1 145/34/1 144/35/1 143/36/1 142/37/1 141/38/1 140/39/1 139/40/1 138/41/1 137/42/1 136/43/1 135/44/1 134/45/1 133/46/1 132/47/1 131/48/1 130/49/1 129/50/1 128/51/1 127/52/1 126/53/1 125/54/1 124/55/1 123/56/1 122/57/1 121/58/1 120/59/1 119/60/1 118/61/1 117/62/1 116/63/1 115/64/1 114/65/1 113/66/1 112/67/1 111/68/1 110/69/1 109/70/1 108/71/1 107/72/1 106/73/1 105/74/1 104/75/1 103/76/1 102/77/1 101/78/1 100/79/1 99/80/1 98/81/1 97/82/1 96/83/1 95/84/1 94/85/1 93/86/1 92/87/1 91/88/1 90/89/1 89/90/1 88/91/1 87/92/1 86/93/1 85/94/1 84/95/1 83/96/1 82/97/1 81/98/1 80/99/1 79/100/1 78/101/1 77/102/1 76/103/1 75/104/1 74/105/1 73/106/1 72/107/1 71/108/1 70/109/1 69/110/1 68/111/1 67/112/1 66/113/1 65/114/1 64/115/1 63/116/1 62/117/1 61/118/1 60/119/1 59/120/1 58/121/1 57/122/1 56/123/1 55/124/1 54/125/1 53/126/1 52/127/1 51/128/1 50/129/1 49/130/1 48/131/1 47/132/1 46/133/1 45/134/1 44/135/1 43/136/1 42/137/1 41/138/1 40/139/1 39/140/1 38/141/1 37/142/1 36/143/1 35/144/1 34/145/1 33/146/1 32/147/1 31/148/1 30/149/1 29/150/1 28/151/1 27/152/1 26/153/1 25/154/1 24/155/1 23/156/1 22/157/1 21/158/1 20/159/1 19/160/1 18/161/1 17/162/1 16/163/1 15/164/1 14/165/1 13/166/1 12/167/1 11/168/1 10/169/1 9/170/1 8/171/1 7/172/1 6/173/1 5/174/1 4/175/1 3/176/1
